HIERARCHY
ROOT Hips
{
	OFFSET 0.00000 0.00000 0.00000
	CHANNELS 6 Xposition Yposition Zposition Yrotation Zrotation Xrotation 
	JOINT Lumbar
	{
		OFFSET 0 0 0
		CHANNELS 3 Zrotation Xrotation Yrotation
		JOINT Neck
		{
			OFFSET 0.00 0.2701 0.00
			CHANNELS 3 Zrotation Xrotation Yrotation
			End Site
			{
				OFFSET 0.00 0.1379 0.00
			}
		}
		JOINT RightShoulder
		{
			OFFSET 0.0119 0.2289 0.1181
			CHANNELS 3 Zrotation Xrotation Yrotation
			JOINT RightElbow
			{
				OFFSET 0.00 -0.1475 0.00
				CHANNELS 2 Zrotation Yrotation
				JOINT RightWrist
				{
					OFFSET 0.00 -0.1605 0.00
					CHANNELS 2 Zrotation Xrotation
					End Site
					{
						OFFSET 0.0040 -0.1068 0.0006
					}
				}
			}
		}
		JOINT LeftShoulder
		{
			OFFSET 0.0119 0.2289 -0.1181
			CHANNELS 3 Zrotation Xrotation Yrotation
			JOINT LeftElbow
			{
				OFFSET 0.00 -0.1475 0.00
				CHANNELS 2 Zrotation Yrotation
				JOINT LeftWrist
				{
					OFFSET 0.00 -0.1605 0.00
					CHANNELS 2 Zrotation Xrotation
					End Site
					{
						OFFSET 0.0040 -0.1068 -0.0006
					}
				}
			}
		}
	}
	JOINT RightHip
	{
		OFFSET 0.0316 -0.0424 0.0458
		CHANNELS 3 Zrotation Xrotation Yrotation
		JOINT RightKnee
		{
			OFFSET 0.00 -0.2438 0.00
			CHANNELS 1 Zrotation
			JOINT RightAnkle
			{
				OFFSET 0.00 -0.2449 0.00
				CHANNELS 3 Zrotation Xrotation Yrotation
				End Site
				{
					OFFSET 0.1237 -0.0542 0.0051
				}
			}
		}
	}
	JOINT LeftHip
	{
		OFFSET 0.0316 -0.0424 -0.0458
		CHANNELS 3 Zrotation Xrotation Yrotation
		JOINT LeftKnee
		{
			OFFSET 0.00 -0.2438 0.00
			CHANNELS 1 Zrotation
			JOINT LeftAnkle
			{
				OFFSET 0.00 -0.2449 0.00
				CHANNELS 3 Zrotation Xrotation Yrotation
				End Site
				{
					OFFSET 0.1237 -0.0542 -0.0051
				}
			}
		}
	}
}
MOTION
Frames: 23
Frame Time: 0.02
-0 0.57926 0 178.54478 0 3.12861 7.99076 -0.21542 0.30694 -29.42862 0.31765 0.42758 22.30217 -10.95839 3.17755 10.53184 81.15842 -1.60241 -0.4699 23.00285 8.1064 -9.48677 8.15102 -73.60857 -7.71459 0.27251 3.59765 1.87596 13.58314 -19.73547 10.04644 -9.24438 -14.6216 2.00999 -3.79078 -6.4375 -15.91713 7.65906 7.7674 13.51442
4e-05 0.57926 -0.00019 178.53815 0 3.14443 7.98737 -0.24312 0.3405 -29.15528 0.48273 0.55345 22.01483 -11.13967 3.61181 10.55254 81.30041 -1.24873 -0.19698 22.77415 7.92658 -9.6106 8.16785 -73.63804 -7.70463 0.35692 3.62237 1.88518 13.62508 -19.7853 10.05269 -9.2428 -14.63836 2.02164 -3.7929 -6.45824 -15.93325 7.64823 7.77031 13.5489
9e-05 0.57925 -0.00039 178.53164 0 3.16014 7.98387 -0.27067 0.37361 -28.88282 0.64756 0.67894 21.72853 -11.32074 4.04289 10.57315 81.4416 -0.89777 0.07387 22.54608 7.74703 -9.73349 8.18449 -73.66784 -7.69449 0.44083 3.64704 1.89442 13.66665 -19.83482 10.05896 -9.24127 -14.65502 2.03341 -3.79489 -6.47865 -15.94945 7.63758 7.77324 13.58284
0.00014 0.57925 -0.00058 178.52543 0 3.17567 7.97997 -0.2981 0.40543 -28.61231 0.81252 0.80426 21.44479 -11.50236 4.4658 10.59346 81.58107 -0.55437 0.33904 22.3196 7.56729 -9.85455 8.2007 -73.69819 -7.68374 0.52374 3.67176 1.90384 13.70771 -19.88386 10.06533 -9.23984 -14.6718 2.04582 -3.79647 -6.49738 -15.96632 7.62764 7.7763 13.61458
0.00017 0.57925 -0.00078 178.51748 0 3.19228 7.97831 -0.32642 0.44428 -28.33278 0.97624 0.93061 21.14896 -11.68062 4.93238 10.61518 81.7298 -0.17106 0.63421 22.08625 7.38913 -9.98617 8.21937 -73.72437 -7.67644 0.61218 3.69626 1.91231 13.75209 -19.93575 10.07112 -9.23776 -14.68838 2.0549 -3.80032 -6.52435 -15.97987 7.61406 7.77871 13.6575
0.00024 0.57924 -0.00097 178.51333 0 3.20652 7.97185 -0.35269 0.4681 -28.07173 1.14279 1.05456 20.87801 -11.86613 5.30586 10.63402 81.85871 0.12754 0.8657 21.8666 7.2074 -10.09472 8.23267 -73.76019 -7.6617 0.68867 3.72115 1.9228 13.78899 -19.98139 10.07815 -9.23715 -14.70509 2.07097 -3.79932 -6.53429 -16.00028 7.60812 7.78247 13.67705
0.0004 0.5792 -0.00116 178.51903 0 3.21482 7.95182 -0.37507 0.45045 -27.86388 1.31895 1.17586 20.67918 -12.07488 5.42524 10.64415 81.93525 0.1913 0.92065 21.68903 7.01401 -10.1454 8.23233 -73.81689 -7.62665 0.73438 3.74831 1.93924 13.80921 -20.01199 10.08882 -9.23983 -14.72484 2.10793 -3.78472 -6.49216 -16.04218 7.6244 7.79033 13.62749
0.00059 0.57916 -0.00135 178.52866 0 3.22065 7.92698 -0.39509 0.41759 -27.67423 1.49774 1.29409 20.50478 -12.29048 5.45015 10.65154 81.99144 0.16976 0.91146 21.52445 6.81723 -10.17171 8.22639 -73.88409 -7.58407 0.76765 3.77569 1.95767 13.82129 -20.03598 10.10072 -9.24412 -14.7443 2.1517 -3.76525 -6.43361 -16.09058 7.64823 7.79949 13.55506
0.00077 0.57912 -0.00154 178.53697 0 3.22716 7.90451 -0.41505 0.39166 -27.47438 1.67451 1.41131 20.31654 -12.50124 5.51652 10.66064 82.05554 0.1879 0.93218 21.35073 6.62279 -10.20551 8.22223 -73.95069 -7.54469 0.80521 3.80219 1.975 13.83436 -20.06152 10.11191 -9.24818 -14.76205 2.1914 -3.74809 -6.38596 -16.1344 7.6679 7.80783 13.49611
0.00095 0.57907 -0.00173 178.54348 0 3.23538 7.88125 -0.43977 0.36571 -27.28204 1.85515 1.53879 20.13926 -12.71969 5.58929 10.66765 82.12534 0.20221 0.94983 21.19004 6.42454 -10.2547 8.22117 -74.00102 -7.50605 0.84852 3.8319 1.9932 13.85832 -20.09292 10.12369 -9.25013 -14.7873 2.23526 -3.73045 -6.32429 -16.1851 7.69058 7.81714 13.42445
0.00112 0.57903 -0.00192 178.55446 0 3.23962 7.8585 -0.45405 0.33614 -27.07921 2.02782 1.64401 19.94574 -12.92321 5.62603 10.6785 82.17835 0.2042 0.95841 21.0061 6.23398 -10.26574 8.21245 -74.08606 -7.46432 0.87689 3.85507 2.01 13.85836 -20.11087 10.13459 -9.25681 -14.7972 2.272 -3.71273 -6.28733 -16.22299 7.70886 7.82472 13.37341
0.00126 0.579 -0.00206 178.57866 0 3.23207 7.83829 -0.43985 0.30057 -26.83626 2.18263 1.69011 19.69491 -13.08899 5.58866 10.69956 82.19059 0.19319 0.95972 20.74832 6.06042 -10.18011 8.18298 -74.27901 -7.41394 0.86737 3.85929 2.02311 13.78824 -20.09073 10.14239 -9.27656 -14.76181 2.28799 -3.69521 -6.32792 -16.22424 7.71275 7.82753 13.38865
0.00138 0.57896 -0.00219 178.60689 0 3.2208 7.81878 -0.41526 0.26179 -26.58369 2.32854 1.71367 19.42838 -13.23872 5.51789 10.72482 82.18653 0.1727 0.95373 20.4682 5.89553 -10.05646 8.14617 -74.50396 -7.36106 0.84326 3.8571 2.03463 13.69539 -20.05778 10.14938 -9.30095 -14.71147 2.29654 -3.67792 -6.39308 -16.21247 7.71211 7.82856 13.42482
0.0015 0.57893 -0.00233 178.63206 0 3.21219 7.79895 -0.39563 0.22437 -26.33952 2.47527 1.7464 19.17299 -13.39224 5.46092 10.74882 82.18953 0.15644 0.9497 20.20215 5.73013 -9.9484 8.11335 -74.70449 -7.31065 0.82558 3.85839 2.04643 13.61704 -20.03236 10.15692 -9.32291 -14.67006 2.30802 -3.66105 -6.44339 -16.20623 7.71375 7.83012 13.44886
0.00163 0.57889 -0.00247 178.66254 0 3.1996 7.77892 -0.37503 0.18703 -26.07767 2.6353 1.78331 18.90049 -13.56015 5.40643 10.76984 82.19327 0.13751 0.94915 19.91874 5.55064 -9.8465 8.07754 -74.94649 -7.25446 0.80808 3.85725 2.0601 13.52111 -19.99941 10.16353 -9.34623 -14.61999 2.32134 -3.64184 -6.50821 -16.20119 7.71447 7.83266 13.4828
0.00174 0.57886 -0.00261 178.68289 0 3.19423 7.7596 -0.35386 0.14874 -25.85176 2.76597 1.80652 18.66092 -13.69498 5.34012 10.79829 82.19188 0.12301 0.94048 19.66762 5.40197 -9.7232 8.04634 -75.11031 -7.20969 0.78716 3.85969 2.06955 13.45613 -19.97929 10.17209 -9.36789 -14.58397 2.32934 -3.62756 -6.54942 -16.19132 7.71623 7.83305 13.50182
0.00181 0.57884 -0.00272 178.67379 0 3.21149 7.74173 -0.33494 0.11018 -25.71548 2.81395 1.79551 18.50657 -13.73645 5.24889 10.84452 82.18026 0.12343 0.91145 19.49946 5.34098 -9.54891 8.02907 -75.04417 -7.19803 0.75788 3.87329 2.06705 13.48557 -19.99699 10.18444 -9.38287 -14.59392 2.3213 -3.62729 -6.51427 -16.16408 7.71952 7.82491 13.47098
0.00186 0.57883 -0.00282 178.65431 0 3.23578 7.72477 -0.3156 0.07027 -25.6193 2.83366 1.77251 18.38888 -13.74688 5.14718 10.89844 82.16412 0.129 0.8749 19.36809 5.30929 -9.35475 8.01672 -74.89938 -7.19776 0.72601 3.89079 2.0605 13.54635 -20.02829 10.19911 -9.39619 -14.6177 2.30878 -3.63189 -6.45532 -16.13392 7.7245 7.81522 13.42517
0.00191 0.57882 -0.00293 178.64008 0 3.25576 7.70746 -0.29564 0.03041 -25.51064 2.86848 1.75547 18.25892 -13.77461 5.05144 10.94997 82.15021 0.13234 0.84176 19.22569 5.26186 -9.17058 8.0027 -74.79464 -7.19176 0.69721 3.90666 2.05626 13.59063 -20.05373 10.21386 -9.4109 -14.63309 2.30028 -3.63402 -6.41098 -16.10951 7.73019 7.80825 13.38864
0.00197 0.57881 -0.00304 178.6243 0 3.28051 7.68933 -0.27872 -0.00596 -25.37135 2.89237 1.73287 18.10459 -13.7858 4.95061 10.99694 82.13507 0.13471 0.80784 19.05274 5.22732 -8.98096 7.98649 -74.67276 -7.18825 0.66054 3.9216 2.04995 13.64367 -20.07698 10.22372 -9.42313 -14.65763 2.28289 -3.63733 -6.35235 -16.06516 7.72921 7.79276 13.34237
0.00202 0.5788 -0.00314 178.60852 0 3.29681 7.67385 -0.25551 -0.05141 -25.31308 2.93375 1.72258 18.01656 -13.8274 4.85679 11.05521 82.12154 0.1406 0.77453 18.95965 5.16984 -8.79856 7.97552 -74.56758 -7.18198 0.63901 3.93965 2.04706 13.68618 -20.10871 10.24443 -9.44005 -14.66563 2.28336 -3.63925 -6.3164 -16.06286 7.74292 7.7946 13.31253
0.00207 0.57878 -0.00317 178.60092 0 3.29003 7.65803 -0.21465 -0.10904 -25.40491 3.0196 1.72155 18.04784 -13.93496 4.79766 11.14232 82.1151 0.15437 0.73994 19.01759 5.0662 -8.64052 7.98312 -74.52735 -7.16768 0.66787 3.96431 2.05401 13.6925 -20.15647 10.29377 -9.47052 -14.63272 2.33184 -3.63714 -6.35792 -16.16842 7.79406 7.84533 13.33226
0.00211 0.57875 -0.00319 178.59226 0 3.27417 7.64545 -0.1674 -0.17839 -25.58942 3.12648 1.73884 18.15619 -14.07984 4.74309 11.24038 82.1106 0.17186 0.70779 19.16664 4.93346 -8.49086 7.99499 -74.50696 -7.14957 0.71116 3.99251 2.06463 13.68739 -20.21337 10.35411 -9.50569 -14.58121 2.39904 -3.63337 -6.42104 -16.31811 7.86043 7.91345 13.36901
